# xmcd CD database file
#
# Track frame offsets:
#	183
#	12978
#	27818
#	39195
#	52575
#	67293
#	82988
#	93898
#	107720
#	123250
#	138525
#	148375
#	160870
#	173923
#
# Disc length: 2496 seconds
#
# Revision: 1
# Processed by: cddbd v1.5.1PL0 Copyright (c) Steve Scherf et al.
# Submitted via: CDex 1.51
#
DISCID=b309be0e
DTITLE=Don Williams - 06 You´re My Best Friend
DYEAR=1990
DGENRE=Country
TTITLE0=You´re My Best Friend
TTITLE1=When I´m With You
TTITLE2=It Must Be Love
TTITLE3=Where Are You
TTITLE4=My Woman´s Love
TTITLE5=Till The Rivers All Run Dry
TTITLE6=(Turn Out The Lights) And Love Me Tonight
TTITLE7=I´m Just A Country Boy
TTITLE8=All I´m Missing Is You
TTITLE9=Don´t You think It´s Time
TTITLE10=Endless Sleep
TTITLE11=Some Broken Hearts Never Mend
TTITLE12=I´m Getting Good At Missing You
TTITLE13=Goodbye Isn´t Really Good At All
EXTD=YEAR: 1990
EXTT0=
EXTT1=
EXTT2=
EXTT3=
EXTT4=
EXTT5=
EXTT6=
EXTT7=
EXTT8=
EXTT9=
EXTT10=
EXTT11=
EXTT12=
EXTT13=
PLAYORDER=
